<svg width="16" height="16" viewBox="0 0 16 16" fill="none" xmlns="http://www.w3.org/2000/svg">
<rect width="16" height="16" fill="white"/>
<path d="M0 7C0 3.13401 3.13401 0 7 0V0C10.866 0 14 3.13401 14 7V7C14 10.866 10.866 14 7 14V14C3.13401 14 0 10.866 0 7V7Z" fill="#4D99FF"/>
<path d="M3.50568 9V3.18182H5.80114C6.24242 3.18182 6.61837 3.2661 6.92898 3.43466C7.23958 3.60133 7.47633 3.83333 7.6392 4.13068C7.80398 4.42614 7.88636 4.76705 7.88636 5.15341C7.88636 5.53977 7.80303 5.88068 7.63636 6.17614C7.4697 6.47159 7.22822 6.7017 6.91193 6.86648C6.59754 7.03125 6.21686 7.11364 5.76989 7.11364H4.30682V6.12784H5.57102C5.80777 6.12784 6.00284 6.08712 6.15625 6.00568C6.31155 5.92235 6.42708 5.80777 6.50284 5.66193C6.58049 5.5142 6.61932 5.3447 6.61932 5.15341C6.61932 4.96023 6.58049 4.79167 6.50284 4.64773C6.42708 4.50189 6.31155 4.3892 6.15625 4.30966C6.00095 4.22822 5.80398 4.1875 5.56534 4.1875H4.7358V9H3.50568Z" fill="white"/>
</svg>
